# AST/ASF file generated using VICON BodyLanguage
# -----------------------------------------------
:version 1.10
:name VICON
:units
  mass 1.0
  length 0.45
  angle deg
:documentation
   .ast/.asf automatically generated from VICON data using
   VICON BodyBuilder and BodyLanguage model FoxedUp or BRILLIANT.MOD
:root
   order TX TY TZ RX RY RZ
   axis XYZ
   position 0 0 0  
   orientation 0 0 0 
:bonedata
  begin
     id 1 
     name lhipjoint
     direction 0.693937 -0.600361 0.397515 
     length 2.37164 
     axis 0 0 0  XYZ
  end
  begin
     id 2 
     name lfemur
     direction 0.34202 -0.939693 0  
     length 6.18497  
     axis 0 0 20  XYZ
    dof rx ry rz
    limits (-160.0 20.0)
           (-70.0 70.0)
           (-60.0 70.0)
  end
  begin
     id 3 
     name ltibia
     direction 0.34202 -0.939693 0   
     length 6.91601   
     axis 0 0 20   XYZ
    dof rx
    limits (-10.0 170.0)
  end
  begin
     id 4 
     name lfoot
     direction 0.0978718 -0.2689 0.958182   
     length 1.81453   
     axis -90 7.62852e-016 20   XYZ
    dof rx rz
    limits (-45.0 90.0)
           (-70.0 20.0)
  end
  begin
     id 5 
     name ltoes
     direction 1.53569e-011 -4.21951e-011 1   
     length 0.912052   
     axis -90 7.62852e-016 20   XYZ
    dof rx
    limits (-90.0 20.0)
  end
  begin
     id 6 
     name rhipjoint
     direction -0.643996 -0.637876 0.422354   
     length 2.23216  
     axis 0 0 0  XYZ 
  end
  begin
     id 7 
     name rfemur
     direction -0.34202 -0.939693 0   
     length 6.15404   
     axis 0 0 -20   XYZ
    dof rx ry rz
    limits (-160.0 20.0)
           (-70.0 70.0)
           (-70.0 60.0)
  end
  begin
     id 8 
     name rtibia
     direction -0.34202 -0.939693 0   
     length 6.86744   
     axis 0 0 -20   XYZ
    dof rx
    limits (-10.0 170.0)
 end
 begin
     id 9 
     name rfoot
     direction -0.118701 -0.326127 0.937844   
     length 1.9243  
     axis -90 -7.62852e-016 -20   XYZ
    dof rx rz
    limits (-45.0 90.0)
           (-20.0 70.0)
  end
  begin
     id 10 
     name rtoes
     direction -1.5356e-011 -4.2181e-011 1   
     length 0.958865   
     axis -90 -7.62852e-016 -20   XYZ
    dof rx
    limits (-90.0 20.0)
  end
  begin
     id 11 
     name lowerback
     direction 0.0310826 0.968686 -0.246334   
     length 2.00021   
     axis 0 0 0   XYZ
    dof rx ry rz
    limits (-20.0 45.0)
           (-30.0 30.0)
           (-30.0 30.0)
  end
  begin
     id 12 
     name upperback
     direction -0.0152834 0.999474 -0.0286152   
     length 2.03728   
     axis 0 0 0   XYZ
    dof rx ry rz
    limits (-20.0 45.0)
           (-30.0 30.0)
           (-30.0 30.0)
  end
  begin
     id 13 
     name thorax
     direction -0.0323701 0.996236 0.0804149   
     length 2.16   
     axis 0 0 0   XYZ
    dof rx ry rz
    limits (-20.0 45.0)
           (-30.0 30.0)
           (-30.0 30.0)
  end
  begin
     id 14 
     name lowerneck
     direction 0.0307935 0.982251 0.185027   
     length 1.43558   
     axis 0 0 0   XYZ
    dof rx ry rz
    limits (-20.0 45.0)
           (-30.0 30.0)
           (-30.0 30.0)
  end
  begin
     id 15 
     name upperneck
     direction -0.0927153 0.994775 0.0427454   
     length 1.44603   
     axis 0 0 0   XYZ
    dof rx ry rz
    limits (-20.0 45.0)
           (-30.0 30.0)
           (-30.0 30.0)
  end
  begin
     id 16
     name head
     direction -0.0341265 0.999406 -0.00472033  
     length 1.45931  
     axis 0 0 0   XYZ
    dof rx ry rz
    limits (-20.0 45.0)
           (-30.0 30.0)
           (-30.0 30.0)
  end
  begin
     id 17 
     name lclavicle
     direction 0.820755 0.555306 -0.134151  
     length 2.66075  
     axis 0 0 0   XYZ
    dof ry rz
    limits (-20.0 10.0)
           (0.0 20.0)
  end
  begin
     id 18 
     name lhumerus
     direction 1 -4.48971e-011 5.24853e-027   
     length 5.0546   
     axis -180 -30 -90   XYZ
    dof rx ry rz
    limits (-60.0 90.0)
           (-90.0 90.0)
           (-90.0 90.0)
  end
  begin
     id 19
     name lradius
     direction 1 -4.48971e-011 2.76575e-028   
     length 3.39013   
     axis -180 -30 -90   XYZ
    dof rx
    limits (-10.0 170.0)
  end
  begin
     id 20
     name lwrist
     direction 1 -4.48939e-011 -2.27826e-027   
     length 1.69507   
     axis 2.17013e-015 90 90   XYZ
    dof ry
    limits (-180.0 0.0)
 end
  begin
     id 21 
     name lhand
     direction 1 -4.49009e-011 -4.55652e-027   
     length 0.572425   
     axis 2.90745e-015 90 90   XYZ
    dof rx rz
    limits (-90.0 90.0)
           (-45.0 45.0)
  end
  begin
     id 22 
     name lfingers
     direction 1 -4.48955e-011 -9.11303e-027   
     length 0.461504   
     axis 5.81489e-015 90 90   XYZ
    dof rx
    limits (0.0 90.0)
  end
  begin
     id 23
     name lthumb
     direction 0.707107 -6.34929e-011 0.707107   
     length 0.66263   
     axis -90 45 2.85299e-015   XYZ
    dof rx rz
    limits (-45.0 45.0)
           (-45.0 45.0)
  end
  begin
     id 24 
     name rclavicle
     direction -0.754477 0.632921 -0.173712   
     length 2.73081  
     axis 0 0 0   XYZ 
    dof ry rz
    limits (-10.0 20.0)
           (-20.0 0.0)
  end
  begin
     id 25 
     name rhumerus
     direction -1 -4.48969e-011 5.1496e-027  
     length 5.0701   
     axis -180 30 90   XYZ
    dof rx ry rz
    limits (-90.0 60.0)
           (-90.0 90.0)
           (-90.0 90.0)
  end
  begin
     id 26 
     name rradius
     direction -1 -4.48967e-011 -7.15624e-028   
     length 3.14957   
     axis -180 30 90   XYZ
    dof rx
    limits (-10.0 170.0)
  end
  begin
     id 27 
     name rwrist
     direction -1 -4.48938e-011 -2.27826e-027   
     length 1.57479   
     axis 2.17013e-015 -90 -90   XYZ
    dof ry
    limits (-180.0 0.0)
  end
  begin
     id 28
     name rhand
     direction -1 -4.49008e-011 -4.55652e-027   
     length 0.718191   
     axis 2.90745e-015 -90 -90   XYZ
    dof rx rz
    limits (-90.0 90.0)
           (-45.0 45.0)
  end
  begin
     id 29
     name rfingers
     direction -1 -4.48953e-011 -9.11303e-027   
     length 0.579024   
     axis 5.81489e-015 -90 -90   XYZ
    dof rx
    limits (0.0 90.0)
  end
  begin
     id 30
     name rthumb
     direction -0.707107 -6.34937e-011 0.707107   
     length 0.831366   
     axis -90 -45 -2.85299e-015   XYZ
    dof rx rz
    limits (-45.0 45.0)
           (-45.0 45.0)
  end
:hierarchy
  begin
    root lhipjoint rhipjoint lowerback
    lhipjoint lfemur
    lfemur ltibia
    ltibia lfoot
    lfoot ltoes
    rhipjoint rfemur
    rfemur rtibia
    rtibia rfoot
    rfoot rtoes
    lowerback upperback
    upperback thorax
    thorax lowerneck lclavicle rclavicle
    lowerneck upperneck
    upperneck head
    lclavicle lhumerus
    lhumerus lradius
    lradius lwrist
    lwrist lhand lthumb
    lhand lfingers
    rclavicle rhumerus
    rhumerus rradius
    rradius rwrist
    rwrist rhand rthumb
    rhand rfingers
  end

#!OML:ASF H:\Male1\Project 1\Capture day 1\Session 1\Male1.ASF
:FULLY-SPECIFIED
:DEGREES
151
root -15.5467 14.8085 -2.03916 -0.00600765 -23.2608 -5.43279
lowerback 6.06221 4.92119 4.92635
upperback 3.73832 6.76876 -1.04507
thorax 1.18821 3.4919 -4.11255
lowerneck -5.63886 10.0113 12.1746
upperneck 22.6919 13.6562 -6.36478
head 9.36106 6.83594 -2.72428
rclavicle 1.25135e-013 -2.22639e-014
rhumerus -34.8985 3.47292 -84.7257
rradius 37.2513
rwrist -18.3544
rhand -18.914 0.651146
rfingers 7.12502
rthumb 7.38812 -29.1999
lclavicle 1.25135e-013 -2.22639e-014
lhumerus -42.7951 -4.82119 89.3721
lradius 32.368
lwrist 4.88546
lhand -18.9458 12.3696
lfingers 7.12502
lthumb 7.35749 42.2217
rfemur 7.54497 -10.6338 37.8829
rtibia 25.2651
rfoot -20.7274 -13.6029
rtoes -19.9874
lfemur -24.0387 0.280042 -30.5849
ltibia 35.7439
lfoot -9.97616 6.10896
ltoes 5.99163
152
root -15.3526 14.8136 -2.10608 -0.282056 -22.5598 -5.09691
lowerback 6.43353 4.78277 4.99955
upperback 3.83508 6.60273 -0.926954
thorax 1.05967 3.40675 -4.05826
lowerneck -5.68126 9.9199 12.0703
upperneck 22.4322 13.5849 -6.62624
head 9.27965 6.7721 -2.80713
rclavicle -4.57205e-014 -4.77083e-015
rhumerus -34.7561 3.62442 -84.6466
rradius 37.0743
rwrist -17.8948
rhand -19.1719 0.432034
rfingers 7.12502
rthumb 7.13926 -29.4275
lclavicle -4.57205e-014 -4.77083e-015
lhumerus -42.6637 -4.71462 89.6193
lradius 32.2517
lwrist 4.45339
lhand -18.2933 11.9078
lfingers 7.12502
lthumb 7.98724 41.7369
rfemur 7.46481 -10.2744 37.5692
rtibia 24.394
rfoot -21.8995 -15.1036
rtoes -18.3737
lfemur -24.7295 0.728087 -31.3179
ltibia 36.1937
lfoot -8.57112 4.18052
ltoes 3.0347
153
root -15.1653 14.8165 -2.17508 -0.459152 -21.8921 -4.97192
lowerback 6.83556 4.71338 5.30059
upperback 3.89397 6.54491 -0.835155
thorax 0.917387 3.37939 -4.16287
lowerneck -5.81429 9.77885 12.0492
upperneck 22.2879 13.4132 -6.81756
head 9.24665 6.67182 -2.88622
rclavicle 5.43676e-014 7.95139e-016
rhumerus -34.6914 3.28141 -84.5579
rradius 36.8756
rwrist -17.5484
rhand -19.2208 0.481537
rfingers 7.12502
rthumb 7.092 -29.3796
lclavicle 5.43676e-014 7.95139e-016
lhumerus -42.543 -4.85378 89.7765
lradius 32.1354
lwrist 4.08318
lhand -17.8686 11.8939
lfingers 7.12502
lthumb 8.39714 41.707
rfemur 7.18742 -9.61221 37.4013
rtibia 23.9484
rfoot -23.1544 -16.1278
rtoes -17.705
lfemur -25.4335 1.27752 -31.6819
ltibia 36.5923
lfoot -7.45332 1.7174
ltoes -4.3371
154
root -14.9833 14.8225 -2.24188 -0.627256 -21.2166 -5.04972
lowerback 7.27914 4.56656 5.6294
upperback 3.97005 6.39055 -0.619117
thorax 0.747268 3.30125 -4.15374
lowerneck -5.91542 9.69897 11.9235
upperneck 22.1251 13.3527 -7.04623
head 9.20736 6.61241 -2.94905
rclavicle -8.19987e-014 5.96354e-015
rhumerus -34.7125 3.15722 -84.4168
rradius 36.7478
rwrist -17.5581
rhand -17.7148 1.12862
rfingers 7.12502
rthumb 8.54561 -28.6785
lclavicle -8.19987e-014 5.96354e-015
lhumerus -42.495 -4.90066 89.9381
lradius 32.0909
lwrist 3.933
lhand -18.1378 12.3758
lfingers 7.12502
lthumb 8.13735 42.1991
rfemur 6.8804 -9.30002 37.2042
rtibia 23.7621
rfoot -24.1219 -16.6466
rtoes -17.4076
lfemur -26.0396 1.5186 -31.573
ltibia 37.0892
lfoot -7.00804 -1.1086
ltoes -12.2094
155
root -14.809 14.8359 -2.30462 -0.922908 -20.5354 -4.77093
lowerback 7.69954 4.38107 5.46704
upperback 4.05358 6.15462 -0.458738
thorax 0.538945 3.17304 -3.92456
lowerneck -6.14178 9.65715 11.7744
upperneck 22.1015 13.3496 -7.2942
head 9.24559 6.57161 -3.00002
rclavicle 7.78242e-014 -1.55052e-014
rhumerus -34.8968 3.44846 -84.3709
rradius 36.7939
rwrist -17.9011
rhand -17.9649 1.8096
rfingers 7.12502
rthumb 8.30416 -28.0072
lclavicle 7.78242e-014 -1.55052e-014
lhumerus -42.5584 -4.99455 90.0678
lradius 32.1592
lwrist 3.99171
lhand -18.5077 12.6232
lfingers 7.12502
lthumb 7.78029 42.4601
rfemur 6.67389 -9.19765 36.5356
rtibia 23.4704
rfoot -24.7573 -17.0067
rtoes -15.6073
lfemur -26.5825 1.4392 -31.6301
ltibia 37.6945
lfoot -7.18849 -3.4898
ltoes -22.8354
